<?xml version="1.0" encoding="UTF-8"?><!DOCTYPE svg PUBLIC "-//W3C//DTD SVG 1.1//EN" "http://www.w3.org/Graphics/SVG/1.1/DTD/svg11.dtd"><svg xmlns="http://www.w3.org/2000/svg" xmlns:xlink="http://www.w3.org/1999/xlink"><defs><path id="a" d="M2.65 2L6 6.65 9.35 2H11L9.35 4.31 6 9 2.65 4.31 1 2z"/><path id="a" d="M46 6h20"/><path id="b" d="M46 12h20"/><path id="c" d="M46 18h20"/></defs><symbol id="arrow-right"><path d="M20.508 0L32 11.5 20.508 23l-2.127-2.128 7.86-7.867H0v-3h26.243l-7.86-7.867z" fill="inherit" fill-rule="evenodd"/></symbol><symbol id="arrow-up"><path d="M142.51 98.01L.1 220.599 15.28 237.1 160.1 114.623 304.92 237.1l15.18-16.502L177.69 98.011 160.1 82.9z"/></symbol><symbol id="chevron-left"><path d="M.661 5.55L4.492 10l1.296-1.099L2.43 5l3.358-3.901L4.492 0 .661 4.45.189 5z"/></symbol><symbol id="chevron-right"><path d="M5.315 4.45L1.484 0 .188 1.099 3.546 5 .188 8.901 1.484 10l3.831-4.45.472-.55z"/></symbol><symbol id="close"><path d="M296.03 41.471L177.5 160l118.53 118.529-17.501 17.5L160 177.502 41.471 296.03l-17.5-17.501L142.498 160 23.97 41.471l17.501-17.5L160 142.498 278.529 23.97l17.5 17.501z"/></symbol><symbol id="down-arrow"><use fill="#00576f" xlink:href="#a" transform="translate(0 -1)"/></symbol><symbol id="file-pdf"><path d="M13 0a3.348 3.348 0 00-3.333 3.333c0 2.274 1.263 5.097 2.593 7.75-1.04 3.256-2.22 6.744-3.729 9.688-3.089 1.212-5.844 2.113-7.5 3.448a.963.963 0 00-.073.083A3.377 3.377 0 000 26.667 3.348 3.348 0 003.333 30c.892 0 1.753-.333 2.375-.969a.79.79 0 00.063-.052c1.219-1.456 2.657-4.096 3.937-6.51 2.952-1.161 6.046-2.343 9.032-3.052 2.179 1.756 5.332 2.916 7.927 2.916A3.348 3.348 0 0030 19a3.348 3.348 0 00-3.333-3.333c-2.081 0-5.105.742-7.417 1.52-1.874-1.759-3.596-3.956-4.833-6.291.884-2.724 1.916-5.45 1.916-7.563A3.348 3.348 0 0013 0zm0 2c.748 0 1.333.585 1.333 1.333 0 1-.535 2.843-1.156 4.823-.83-1.926-1.51-3.775-1.51-4.823C11.667 2.585 12.252 2 13 2zm.573 11.406a26.73 26.73 0 003.458 4.396c-1.977.54-3.907 1.233-5.812 1.958.92-2.076 1.657-4.232 2.354-6.354zm13.094 4.26c.748 0 1.333.586 1.333 1.334 0 .748-.585 1.333-1.333 1.333-1.502 0-3.637-.678-5.344-1.625 1.959-.554 4.097-1.041 5.344-1.041zM6.77 23.637c-.938 1.673-1.87 3.234-2.521 4.02-.223.213-.519.344-.917.344A1.32 1.32 0 012 26.667c0-.352.15-.702.354-.927.782-.606 2.483-1.33 4.417-2.105z"/></symbol><symbol id="hamburger"><use fill="#fff" fill-opacity="0" stroke="#fff" stroke-linecap="round" stroke-miterlimit="50" stroke-width="2" xlink:href="#a" transform="translate(-45 -5)"/><use fill="#fff" fill-opacity="0" stroke="#fff" stroke-linecap="round" stroke-miterlimit="50" stroke-width="2" xlink:href="#b" transform="translate(-45 -5)"/><use fill="#fff" fill-opacity="0" stroke="#fff" stroke-linecap="round" stroke-miterlimit="50" stroke-width="2" xlink:href="#c" transform="translate(-45 -5)"/></symbol><symbol id="minus"><path d="M13.781 1.988V.04H.219v1.948z"/></symbol><symbol id="play-outline" viewBox="0 0 60 60"><path fill="currentColor" d="M21.75 16.5v27L44.25 30zM57 30c0 14.93-12.07 27-27 27S3 44.93 3 30 15.07 3 30 3s27 12.07 27 27zM0 30c0 16.55 13.45 30 30 30s30-13.45 30-30S46.55 0 30 0 0 13.45 0 30z"/></symbol><symbol id="play" viewBox="0 0 494.942 494.942"><path d="M35.353 0l424.236 247.471L35.353 494.942z"/></symbol><symbol id="plus"><path d="M7.967 14V7.988h5.814V6.04H7.967V0H6.005v6.04H.219v1.948h5.786V14z"/></symbol></svg>